<svg xmlns="http://www.w3.org/2000/svg" xmlns:xlink="http://www.w3.org/1999/xlink" xmlns:svgjs="http://svgjs.com/svgjs" version="1.1" width="512" height="512" x="0" y="0" viewBox="0 0 128 128" style="enable-background:new 0 0 512 512" xml:space="preserve" class="hovered-paths"><g><path id="Up" d="m64 0c-35.289 0-64 28.711-64 64s28.711 64 64 64 64-28.711 64-64-28.711-64-64-64zm0 120c-30.879 0-56-25.121-56-56s25.121-56 56-56 56 25.121 56 56-25.121 56-56 56zm22.828-62.828c1.563 1.563 1.563 4.094 0 5.656-.781.781-1.805 1.172-2.828 1.172s-2.047-.391-2.828-1.172l-13.172-13.172v38.344c0 2.211-1.791 4-4 4s-4-1.789-4-4v-38.344l-13.172 13.172c-1.563 1.563-4.094 1.563-5.656 0s-1.563-4.094 0-5.656l20-20c1.563-1.563 4.094-1.563 5.656 0z" fill="#ffffff" data-original="#000000" class="hovered-path"/></g></svg>